<?xml version="1.0" encoding="UTF-8" standalone="no"?><!-- Generator: Gravit.io --><svg xmlns="http://www.w3.org/2000/svg" xmlns:xlink="http://www.w3.org/1999/xlink" style="isolation:isolate" viewBox="0 0 40 60" width="40pt" height="60pt"><defs><clipPath id="_clipPath_nI5csMxEjCOVop1Wzh6k5Q76Xr2lKewN"><rect width="40" height="60"/></clipPath></defs><g clip-path="url(#_clipPath_nI5csMxEjCOVop1Wzh6k5Q76Xr2lKewN)"><g><path d=" M 11.375 18.5 C 10.581 18.5 9.938 19.144 9.938 19.938 C 9.938 20.731 10.581 21.375 11.375 21.375 L 28.625 21.375 C 29.419 21.375 30.063 20.731 30.063 19.938 C 30.063 19.144 29.419 18.5 28.625 18.5 L 11.375 18.5 Z  M 9.938 25.688 C 9.938 24.894 10.581 24.25 11.375 24.25 L 28.625 24.25 C 29.419 24.25 30.063 24.894 30.063 25.688 C 30.063 26.481 29.419 27.125 28.625 27.125 L 11.375 27.125 C 10.581 27.125 9.938 26.481 9.938 25.688 Z  M 11.375 30 C 10.581 30 9.938 30.644 9.938 31.438 C 9.938 32.231 10.581 32.875 11.375 32.875 L 28.625 32.875 C 29.419 32.875 30.063 32.231 30.063 31.438 C 30.063 30.644 29.419 30 28.625 30 L 11.375 30 Z  M 11.375 35.75 C 10.581 35.75 9.938 36.394 9.938 37.188 C 9.938 37.981 10.581 38.625 11.375 38.625 L 20 38.625 C 20.794 38.625 21.438 37.981 21.438 37.188 C 21.438 36.394 20.794 35.75 20 35.75 L 11.375 35.75 Z " fill="rgb(255,255,255)"/><path d=" M 2.75 12.75 C 2.75 9.574 5.324 7 8.5 7 L 31.5 7 C 34.676 7 37.25 9.574 37.25 12.75 L 37.25 47.25 C 37.25 50.426 34.676 53 31.5 53 L 8.5 53 C 5.324 53 2.75 50.426 2.75 47.25 L 2.75 12.75 Z  M 31.5 9.875 L 8.5 9.875 C 6.912 9.875 5.625 11.162 5.625 12.75 L 5.625 47.25 C 5.625 48.838 6.912 50.125 8.5 50.125 L 31.5 50.125 C 33.088 50.125 34.375 48.838 34.375 47.25 L 34.375 12.75 C 34.375 11.162 33.088 9.875 31.5 9.875 Z " fill="rgb(255,255,255)"/></g></g></svg>